{
    "asset" : {
        "generator" : "Khronos glTF Blender I/O v1.8.19",
        "version" : "2.0"
    },
    "scene" : 0,
    "scenes" : [
        {
            "name" : "Scene",
            "nodes" : [
                0,
                1
            ]
        }
    ],
    "nodes" : [
        {
            "mesh" : 0,
            "name" : "demonio",
            "rotation" : [
                0,
                0,
                0.3044165372848511,
                0.9525390267372131
            ],
            "translation" : [
                0,
                0.4278227686882019,
                0
            ]
        },
        {
            "mesh" : 1,
            "name" : "collision",
            "scale" : [
                0.5148585438728333,
                0.5148585438728333,
                0.5148585438728333
            ],
            "translation" : [
                0.8764095306396484,
                -1.1392643451690674,
                0.026795409619808197
            ]
        }
    ],
    "meshes" : [
        {
            "name" : "Plane",
            "primitives" : [
                {
                    "attributes" : {
                        "POSITION" : 0,
                        "NORMAL" : 1,
                        "TEXCOORD_0" : 2
                    },
                    "indices" : 3
                }
            ]
        },
        {
            "name" : "Cube",
            "primitives" : [
                {
                    "attributes" : {
                        "POSITION" : 4,
                        "NORMAL" : 5,
                        "TEXCOORD_0" : 6
                    },
                    "indices" : 7
                }
            ]
        }
    ],
    "accessors" : [
        {
            "bufferView" : 0,
            "componentType" : 5126,
            "count" : 422,
            "max" : [
                2.945491313934326,
                0.5593780279159546,
                1.2056102752685547
            ],
            "min" : [
                -0.5848914980888367,
                -2.1874070167541504,
                -1.2056257724761963
            ],
            "type" : "VEC3"
        },
        {
            "bufferView" : 1,
            "componentType" : 5126,
            "count" : 422,
            "type" : "VEC3"
        },
        {
            "bufferView" : 2,
            "componentType" : 5126,
            "count" : 422,
            "type" : "VEC2"
        },
        {
            "bufferView" : 3,
            "componentType" : 5123,
            "count" : 588,
            "type" : "SCALAR"
        },
        {
            "bufferView" : 4,
            "componentType" : 5126,
            "count" : 24,
            "max" : [
                3.5231997966766357,
                6.776317596435547,
                1
            ],
            "min" : [
                -2.4398226737976074,
                -1,
                -1
            ],
            "type" : "VEC3"
        },
        {
            "bufferView" : 5,
            "componentType" : 5126,
            "count" : 24,
            "type" : "VEC3"
        },
        {
            "bufferView" : 6,
            "componentType" : 5126,
            "count" : 24,
            "type" : "VEC2"
        },
        {
            "bufferView" : 7,
            "componentType" : 5123,
            "count" : 36,
            "type" : "SCALAR"
        }
    ],
    "bufferViews" : [
        {
            "buffer" : 0,
            "byteLength" : 5064,
            "byteOffset" : 0
        },
        {
            "buffer" : 0,
            "byteLength" : 5064,
            "byteOffset" : 5064
        },
        {
            "buffer" : 0,
            "byteLength" : 3376,
            "byteOffset" : 10128
        },
        {
            "buffer" : 0,
            "byteLength" : 1176,
            "byteOffset" : 13504
        },
        {
            "buffer" : 0,
            "byteLength" : 288,
            "byteOffset" : 14680
        },
        {
            "buffer" : 0,
            "byteLength" : 288,
            "byteOffset" : 14968
        },
        {
            "buffer" : 0,
            "byteLength" : 192,
            "byteOffset" : 15256
        },
        {
            "buffer" : 0,
            "byteLength" : 72,
            "byteOffset" : 15448
        }
    ],
    "buffers" : [
        {
            "byteLength" : 15520,
            "uri" : "data:application/octet-stream;base64,"
        }
    ]
}
